<mxfile host="app.diagrams.net" modified="2020-10-26T05:56:41.838Z" agent="5.0 (Windows NT 10.0; Win64; x64) AppleWebKit/537.36 (KHTML, like Gecko) Chrome/86.0.4240.111 Safari/537.36" etag="-UsjlzJsmYfKWRYJ6zuL" version="13.8.2" type="github">
  <diagram id="hYZyGuRCFRut5H3WFlY-" name="Страница 1">
    <mxGraphModel dx="1422" dy="705" grid="1" gridSize="10" guides="1" tooltips="1" connect="1" arrows="1" fold="1" page="1" pageScale="1" pageWidth="827" pageHeight="1169" math="0" shadow="0">
      <root>
        <mxCell id="0" />
        <mxCell id="1" parent="0" />
        <mxCell id="4rKCVCqV3t7YNGCXFc-X-1" value="Продуктовый магазин" style="rounded=0;whiteSpace=wrap;html=1;fillColor=none;" vertex="1" parent="1">
          <mxGeometry x="310" y="310" width="180" height="160" as="geometry" />
        </mxCell>
        <mxCell id="4rKCVCqV3t7YNGCXFc-X-2" value="" style="endArrow=classic;html=1;entryX=0;entryY=0.75;entryDx=0;entryDy=0;" edge="1" parent="1" target="4rKCVCqV3t7YNGCXFc-X-1">
          <mxGeometry width="50" height="50" relative="1" as="geometry">
            <mxPoint x="190" y="430" as="sourcePoint" />
            <mxPoint x="160" y="380" as="targetPoint" />
          </mxGeometry>
        </mxCell>
        <mxCell id="4rKCVCqV3t7YNGCXFc-X-3" value="Плата" style="text;html=1;strokeColor=none;fillColor=none;align=center;verticalAlign=middle;whiteSpace=wrap;rounded=0;" vertex="1" parent="1">
          <mxGeometry x="230" y="410" width="40" height="20" as="geometry" />
        </mxCell>
        <mxCell id="4rKCVCqV3t7YNGCXFc-X-4" value="" style="endArrow=classic;html=1;entryX=0;entryY=0.75;entryDx=0;entryDy=0;" edge="1" parent="1">
          <mxGeometry width="50" height="50" relative="1" as="geometry">
            <mxPoint x="190" y="350" as="sourcePoint" />
            <mxPoint x="310" y="350" as="targetPoint" />
          </mxGeometry>
        </mxCell>
        <mxCell id="4rKCVCqV3t7YNGCXFc-X-5" value="Список продуктов" style="text;html=1;strokeColor=none;fillColor=none;align=center;verticalAlign=middle;whiteSpace=wrap;rounded=0;" vertex="1" parent="1">
          <mxGeometry x="220" y="320" width="60" height="30" as="geometry" />
        </mxCell>
        <mxCell id="4rKCVCqV3t7YNGCXFc-X-6" value="" style="endArrow=classic;html=1;entryX=0;entryY=0.75;entryDx=0;entryDy=0;" edge="1" parent="1">
          <mxGeometry width="50" height="50" relative="1" as="geometry">
            <mxPoint x="490" y="430" as="sourcePoint" />
            <mxPoint x="610" y="430" as="targetPoint" />
          </mxGeometry>
        </mxCell>
        <mxCell id="4rKCVCqV3t7YNGCXFc-X-7" value="Доход" style="text;html=1;strokeColor=none;fillColor=none;align=center;verticalAlign=middle;whiteSpace=wrap;rounded=0;" vertex="1" parent="1">
          <mxGeometry x="530" y="410" width="40" height="20" as="geometry" />
        </mxCell>
        <mxCell id="4rKCVCqV3t7YNGCXFc-X-8" value="" style="endArrow=classic;html=1;entryX=0;entryY=0.75;entryDx=0;entryDy=0;" edge="1" parent="1">
          <mxGeometry width="50" height="50" relative="1" as="geometry">
            <mxPoint x="490" y="350" as="sourcePoint" />
            <mxPoint x="610" y="350" as="targetPoint" />
          </mxGeometry>
        </mxCell>
        <mxCell id="4rKCVCqV3t7YNGCXFc-X-9" value="Продуты" style="text;html=1;strokeColor=none;fillColor=none;align=center;verticalAlign=middle;whiteSpace=wrap;rounded=0;" vertex="1" parent="1">
          <mxGeometry x="520" y="320" width="60" height="30" as="geometry" />
        </mxCell>
        <mxCell id="4rKCVCqV3t7YNGCXFc-X-10" value="" style="endArrow=classic;html=1;entryX=0.25;entryY=0;entryDx=0;entryDy=0;" edge="1" parent="1" target="4rKCVCqV3t7YNGCXFc-X-1">
          <mxGeometry width="50" height="50" relative="1" as="geometry">
            <mxPoint x="355" y="240" as="sourcePoint" />
            <mxPoint x="380" y="230" as="targetPoint" />
          </mxGeometry>
        </mxCell>
        <mxCell id="4rKCVCqV3t7YNGCXFc-X-11" value="Ценовая политика" style="text;html=1;strokeColor=none;fillColor=none;align=center;verticalAlign=middle;whiteSpace=wrap;rounded=0;" vertex="1" parent="1">
          <mxGeometry x="320" y="210" width="60" height="30" as="geometry" />
        </mxCell>
        <mxCell id="4rKCVCqV3t7YNGCXFc-X-12" value="" style="endArrow=classic;html=1;entryX=0.25;entryY=0;entryDx=0;entryDy=0;" edge="1" parent="1">
          <mxGeometry width="50" height="50" relative="1" as="geometry">
            <mxPoint x="455" y="240" as="sourcePoint" />
            <mxPoint x="455" y="310" as="targetPoint" />
          </mxGeometry>
        </mxCell>
        <mxCell id="4rKCVCqV3t7YNGCXFc-X-13" value="Нормативные акты" style="text;html=1;strokeColor=none;fillColor=none;align=center;verticalAlign=middle;whiteSpace=wrap;rounded=0;" vertex="1" parent="1">
          <mxGeometry x="430" y="210" width="60" height="30" as="geometry" />
        </mxCell>
        <mxCell id="4rKCVCqV3t7YNGCXFc-X-14" value="" style="endArrow=classic;html=1;entryX=0.25;entryY=1;entryDx=0;entryDy=0;" edge="1" parent="1" target="4rKCVCqV3t7YNGCXFc-X-1">
          <mxGeometry width="50" height="50" relative="1" as="geometry">
            <mxPoint x="355" y="550" as="sourcePoint" />
            <mxPoint x="350" y="590" as="targetPoint" />
          </mxGeometry>
        </mxCell>
        <mxCell id="4rKCVCqV3t7YNGCXFc-X-15" value="Персонал" style="text;html=1;strokeColor=none;fillColor=none;align=center;verticalAlign=middle;whiteSpace=wrap;rounded=0;" vertex="1" parent="1">
          <mxGeometry x="320" y="555" width="60" height="30" as="geometry" />
        </mxCell>
        <mxCell id="4rKCVCqV3t7YNGCXFc-X-16" value="" style="endArrow=classic;html=1;entryX=0.25;entryY=1;entryDx=0;entryDy=0;" edge="1" parent="1">
          <mxGeometry width="50" height="50" relative="1" as="geometry">
            <mxPoint x="455" y="550" as="sourcePoint" />
            <mxPoint x="455" y="470" as="targetPoint" />
          </mxGeometry>
        </mxCell>
        <mxCell id="4rKCVCqV3t7YNGCXFc-X-17" value="Кассовые аппараты" style="text;html=1;strokeColor=none;fillColor=none;align=center;verticalAlign=middle;whiteSpace=wrap;rounded=0;" vertex="1" parent="1">
          <mxGeometry x="420" y="555" width="60" height="30" as="geometry" />
        </mxCell>
      </root>
    </mxGraphModel>
  </diagram>
</mxfile>
